# xmcd CD database file
#
# Track frame offsets:
#	151
#	15807
#	39298
#	62397
#	78055
#	97088
#	108782
#	140241
#	159602
#	176923
#	224240
#	238524
#
# Disc length: 3443 seconds
#
# Revision: 0
# Processed by: cddbd v1.5.1PL0 Copyright (c) Steve Scherf et al.
# Submitted via: CDex 1.51
#
DISCID=990d710c
DTITLE=Towa Tei - SOUND MUSEUM
DYEAR=1900
DGENRE=Techno
TTITLE0=The Sound Museum
TTITLE1=Time After Time
TTITLE2=Happy
TTITLE3=BMT
TTITLE4=Higher
TTITLE5=Corridor
TTITLE6=GBI
TTITLE7=Tamilano
TTITLE8=Private Eyes
TTITLE9=Everything We Do Is Music
TTITLE10=Private Eyes
TTITLE11=Happy
EXTD=
EXTT0=
EXTT1=
EXTT2=
EXTT3=
EXTT4=
EXTT5=
EXTT6=
EXTT7=
EXTT8=
EXTT9=
EXTT10=
EXTT11=
PLAYORDER=
